<?xml version="1.0" standalone="no"?>
<!DOCTYPE svg PUBLIC "-//W3C//DTD SVG 20010904//EN"
 "http://www.w3.org/TR/2001/REC-SVG-20010904/DTD/svg10.dtd">
<svg version="1.0" xmlns="http://www.w3.org/2000/svg"
 width="420.000000pt" height="420.000000pt" viewBox="0 0 420.000000 420.000000"
 preserveAspectRatio="xMidYMid meet">

<g transform="translate(0.000000,420.000000) scale(0.100000,-0.100000)"
fill="#000000" stroke="none">
<path d="M2479 3964 c-52 -25 -116 -57 -144 -72 -45 -23 -63 -26 -175 -29
-149 -4 -201 -13 -344 -60 -129 -42 -189 -89 -202 -158 -4 -22 -19 -54 -34
-71 -54 -62 -90 -175 -90 -283 0 -19 -12 -59 -27 -90 -22 -47 -28 -76 -34
-186 -5 -71 -10 -143 -13 -160 -3 -16 -8 -73 -12 -125 -3 -52 -13 -119 -21
-148 -12 -42 -12 -59 -3 -81 9 -22 8 -44 -1 -92 -16 -84 -17 -112 -4 -121 6
-5 3 -8 -7 -8 -15 0 -18 10 -18 65 0 57 -3 69 -26 92 -36 35 -42 21 -10 -25
25 -36 26 -44 26 -164 0 -87 4 -128 12 -130 6 -2 -4 -12 -23 -21 -19 -9 -26
-17 -17 -17 31 0 56 -50 83 -163 29 -121 46 -168 83 -235 18 -31 28 -40 35
-33 6 6 29 11 51 11 38 0 38 1 20 17 -10 10 -20 27 -22 38 -2 11 -12 38 -22
60 -54 119 -89 221 -96 285 -3 25 -10 61 -14 80 -5 19 -10 66 -11 103 -1 37
-6 70 -10 73 -5 3 -3 13 3 24 7 10 17 16 23 12 5 -3 4 2 -4 11 -11 14 -11 23
-1 46 6 17 9 34 6 40 -4 5 -2 12 4 16 5 3 10 20 10 37 0 25 3 29 18 23 14 -5
15 -4 5 6 -15 15 -17 59 -3 59 6 0 10 -11 10 -24 0 -38 17 -40 37 -4 9 18 16
36 15 40 -1 3 11 20 27 37 16 17 26 33 23 36 -6 6 39 9 93 6 61 -3 293 -61
355 -88 86 -38 119 -64 126 -100 6 -34 34 -36 34 -2 0 41 74 52 122 18 24 -18
28 -26 23 -50 -8 -34 4 -37 30 -9 27 30 82 41 181 36 131 -7 367 -64 404 -98
38 -35 39 -187 3 -284 -11 -27 -20 -67 -21 -89 -4 -73 -68 -188 -165 -295 -28
-30 -63 -73 -79 -95 -31 -43 -166 -165 -183 -165 -11 0 -57 -23 -115 -59 -19
-11 -55 -31 -80 -43 -25 -13 -47 -26 -50 -29 -12 -14 -184 -41 -232 -37 -54 5
-151 46 -188 80 -11 10 -20 16 -20 12 0 -4 -18 12 -41 34 -24 25 -46 39 -52
35 -7 -4 -6 1 2 10 12 15 11 17 -3 17 -9 0 -16 6 -16 14 0 8 -7 22 -16 30 -9
9 -17 22 -18 29 -4 30 -23 16 -52 -37 -16 -31 -33 -53 -37 -50 -4 4 -7 -4 -7
-17 0 -19 -2 -21 -10 -9 -9 13 -10 13 -11 0 -1 -8 -1 -20 0 -27 1 -6 -7 -17
-16 -25 -10 -7 -24 -24 -31 -38 -7 -14 -21 -38 -31 -55 -10 -16 -16 -34 -13
-39 3 -5 -2 -6 -12 -3 -9 4 -15 3 -12 -1 3 -5 -7 -24 -23 -43 -30 -38 -77
-146 -67 -156 15 -15 121 136 131 186 2 11 9 29 15 41 6 11 8 25 5 30 -4 6 -1
9 6 8 6 -2 33 32 59 75 26 42 50 80 53 84 4 3 28 -14 54 -38 27 -25 58 -52 70
-60 19 -13 21 -21 15 -65 l-7 -49 -43 -3 c-37 -3 -42 -6 -36 -20 10 -26 7 -52
-10 -71 -8 -9 -34 -54 -57 -101 -23 -47 -49 -94 -59 -105 -23 -26 -32 -55 -18
-55 17 0 48 41 73 97 13 28 33 58 44 65 12 7 21 20 21 30 0 9 4 20 10 23 14 8
81 -10 185 -52 99 -40 187 -53 275 -40 65 9 316 69 412 98 38 11 89 24 115 28
l48 8 -47 13 c-27 7 -48 16 -48 21 0 20 -68 54 -120 59 -45 4 -55 8 -58 25 -2
16 17 30 102 73 116 60 193 127 307 267 55 69 71 82 109 92 25 6 37 12 28 12
-10 1 -18 7 -18 14 1 20 57 112 67 110 5 -1 9 8 8 20 -1 12 6 36 16 54 10 17
16 33 13 35 -2 3 7 16 20 29 37 37 53 48 60 42 3 -4 6 3 6 14 0 32 -48 22 -82
-16 -15 -17 -30 -31 -32 -31 -8 0 21 90 34 105 7 8 9 15 5 15 -5 0 -1 8 7 18
19 21 68 117 68 132 0 6 15 44 34 83 57 119 63 139 65 231 2 82 12 133 29 146
11 8 30 41 58 100 33 68 38 172 11 213 -13 20 -17 48 -17 110 0 130 -40 226
-130 313 l-43 42 31 6 c43 10 95 59 95 91 0 44 -17 51 -73 31 -59 -21 -74 -15
-131 54 -88 108 -152 151 -258 173 -39 8 -62 19 -76 37 -58 74 -112 110 -165
110 -10 0 -60 -21 -111 -46z m-399 -748 c36 -8 112 -25 170 -39 58 -15 155
-36 215 -47 186 -36 208 -41 275 -63 36 -11 80 -31 98 -44 17 -13 32 -20 32
-16 0 4 4 3 8 -2 4 -6 32 -29 62 -50 77 -56 96 -81 116 -153 13 -49 16 -84 11
-165 -7 -111 -15 -150 -28 -141 -11 7 -23 -42 -13 -57 4 -7 3 -9 -4 -5 -6 3
-13 2 -17 -4 -3 -5 1 -10 10 -10 9 0 14 -4 11 -9 -4 -5 -24 -1 -46 10 -21 10
-43 19 -48 19 -6 0 -12 7 -16 15 -16 42 -90 125 -121 135 -61 20 -295 11 -295
-11 0 -9 17 -12 160 -30 101 -12 112 -16 175 -61 33 -24 35 -28 15 -24 -60 12
-178 35 -205 40 -16 3 -70 9 -119 12 -66 5 -87 4 -82 -4 5 -8 -2 -10 -23 -6
-18 4 -37 2 -45 -5 -12 -10 -17 -8 -26 9 -24 44 -123 65 -156 33 -16 -16 -18
-16 -33 4 -20 24 -76 55 -85 46 -3 -4 -6 -1 -6 6 0 7 -4 9 -10 6 -5 -3 -10 -1
-10 5 0 7 -7 9 -16 6 -9 -4 -13 -2 -8 5 4 7 1 10 -7 7 -8 -3 -20 2 -28 10 -8
7 -25 12 -37 9 -13 -2 -25 0 -26 4 -2 5 -48 18 -103 30 -137 29 -138 30 -66
44 71 13 75 13 230 -36 51 -16 96 -27 100 -24 18 19 -173 119 -247 131 -38 6
-98 -16 -168 -63 -12 -8 -56 -15 -98 -17 -69 -4 -75 -3 -67 13 5 9 28 64 51
121 78 198 124 271 209 330 69 48 186 62 311 36z"/>
<path d="M1680 2571 c-30 -17 -71 -38 -91 -47 -37 -16 -79 -77 -79 -115 0 -29
16 -23 47 17 26 35 28 36 43 17 8 -11 29 -28 45 -38 l30 -19 -29 32 c-27 29
-28 32 -13 55 14 22 93 67 118 67 6 0 1 -14 -11 -31 -21 -28 -33 -119 -19
-134 13 -12 163 -44 173 -37 6 5 20 12 30 16 16 5 17 4 6 -9 -7 -9 -11 -17 -9
-19 9 -9 40 23 53 54 l14 34 25 -50 26 -49 0 45 c1 97 -30 154 -114 208 -31
20 -56 26 -115 30 -69 4 -79 2 -130 -27z m157 -67 c8 -21 -19 -46 -40 -38 -17
6 -23 35 -10 47 12 13 44 7 50 -9z"/>
<path d="M2547 2408 c-20 -6 -49 -23 -64 -38 -15 -16 -31 -27 -35 -24 -5 3 -7
2 -6 -3 3 -10 -27 -55 -33 -49 -2 3 -5 -11 -5 -30 l0 -35 36 36 c20 19 39 35
43 35 4 0 7 -18 7 -40 0 -26 7 -47 19 -59 22 -22 105 -36 152 -26 22 5 34 3
40 -6 7 -11 13 -9 29 11 23 30 35 80 26 116 -10 37 12 27 52 -25 44 -58 42
-85 -5 -104 -21 -9 -30 -16 -20 -16 10 -1 32 5 50 12 18 8 50 12 72 10 33 -3
37 -2 22 7 -14 9 -15 15 -7 25 9 11 7 16 -9 25 -12 6 -28 24 -36 40 -62 120
-190 174 -328 138z m58 -83 c0 -22 -31 -33 -47 -17 -17 17 -1 44 24 40 15 -2
23 -10 23 -23z"/>
<path d="M1431 2294 c0 -11 3 -14 6 -6 3 7 2 16 -1 19 -3 4 -6 -2 -5 -13z"/>
<path d="M2046 2023 c-10 -25 21 -81 55 -98 51 -27 122 -25 153 4 26 25 42 73
30 92 -4 8 -11 3 -20 -13 -31 -59 -123 -61 -180 -4 -24 24 -34 29 -38 19z"/>
<path d="M1810 1907 c61 -66 193 -129 318 -152 137 -26 295 -12 347 30 20 16
20 16 0 10 -12 -3 -103 -6 -203 -6 -152 -2 -185 1 -206 15 -14 8 -31 13 -39
11 -16 -7 -90 23 -83 33 2 4 -5 8 -17 7 -12 0 -22 4 -22 8 0 4 -20 17 -45 28
-25 11 -56 30 -70 42 -14 12 -5 0 20 -26z"/>
<path d="M2512 1824 c9 -9 21 -13 28 -9 14 9 -5 25 -30 25 -12 0 -12 -3 2 -16z"/>
<path d="M3015 1750 c-3 -5 -2 -10 4 -10 5 0 13 5 16 10 3 6 2 10 -4 10 -5 0
-13 -4 -16 -10z"/>
<path d="M2303 1683 c9 -2 23 -2 30 0 6 3 -1 5 -18 5 -16 0 -22 -2 -12 -5z"/>
<path d="M1230 1508 c1 -7 12 -38 25 -68 22 -50 24 -52 20 -20 -2 19 -4 39 -4
43 -1 5 -5 5 -11 2 -6 -3 -10 5 -10 19 0 14 -4 28 -10 31 -5 3 -10 0 -10 -7z"/>
<path d="M1125 971 c-3 -11 -7 -36 -9 -55 -2 -20 -11 -45 -21 -56 -10 -11 -14
-20 -9 -20 5 0 10 -18 10 -39 2 -54 33 -143 46 -135 7 4 8 2 4 -5 -4 -6 -2
-19 5 -27 9 -11 9 -18 -4 -32 -41 -45 -97 -158 -97 -195 0 -106 123 -219 270
-247 56 -11 136 -5 145 11 7 10 35 0 35 -13 0 -6 -6 -8 -13 -5 -8 3 -14 -1
-14 -8 0 -7 6 -11 14 -8 7 3 13 0 13 -6 0 -6 -5 -11 -10 -11 -6 0 -8 -11 -4
-25 4 -15 2 -25 -5 -25 -6 0 -11 -5 -11 -12 0 -6 -7 -20 -17 -30 -18 -20 -12
-34 11 -25 19 7 35 64 42 147 4 36 13 79 22 95 9 17 17 32 17 35 1 5 27 62 31
68 1 2 19 5 40 8 99 12 167 69 220 182 33 70 47 122 21 74 -7 -12 -17 -19 -22
-15 -4 4 -5 2 -1 -5 11 -18 -60 -80 -101 -88 -59 -11 -142 2 -169 27 -13 12
-24 30 -24 39 0 22 -46 64 -62 57 -30 -11 -103 48 -113 91 -3 18 -13 32 -21
32 -8 0 -14 4 -14 8 0 4 -15 14 -34 20 -40 15 -96 74 -96 102 0 21 -31 80 -42
80 -5 0 -8 7 -8 15 0 21 -18 19 -25 -4z m130 -463 c3 4 5 0 3 -8 -2 -8 3 -14
10 -12 8 1 11 -2 7 -8 -3 -5 -2 -10 4 -10 6 0 23 -12 39 -27 15 -16 44 -37 65
-48 20 -10 34 -21 32 -23 -10 -11 -150 77 -178 112 -24 30 -26 36 -10 28 11
-6 24 -8 28 -4z"/>
<path d="M1770 912 c-18 -37 -38 -70 -43 -73 -4 -3 -9 -12 -11 -20 -1 -8 -7
-24 -14 -36 -26 -46 -11 -55 17 -10 48 75 105 207 90 207 -2 0 -20 -30 -39
-68z"/>
<path d="M1091 944 c0 -11 3 -14 6 -6 3 7 2 16 -1 19 -3 4 -6 -2 -5 -13z"/>
<path d="M1087 883 c-4 -3 -7 -11 -7 -17 0 -6 5 -5 12 2 6 6 9 14 7 17 -3 3
-9 2 -12 -2z"/>
<path d="M1891 694 c-13 -25 -20 -48 -17 -51 3 -3 15 16 26 42 27 62 20 68 -9
9z"/>
<path d="M2852 272 c-14 -43 -17 -70 -12 -109 9 -76 20 -77 20 -2 0 45 6 78
20 107 24 49 25 62 6 62 -8 0 -22 -24 -34 -58z"/>
</g>
</svg>
